<svg xmlns="http://www.w3.org/2000/svg" height="48" viewBox="0 -960 960 960" width="48"><path fill="#fff" d="M281-258q-93.715 0-157.857-64.12Q59-386.24 59-479.922q0-93.683 64.143-158.38Q187.285-703 281-703h112q19.775 0 32.388 13.675Q438-675.649 438-656.509q0 19.141-12.612 32.325Q412.775-611 393-611H281q-56.333 0-93.667 37.765-37.333 37.764-37.333 93Q150-425 187.333-387q37.334 38 93.667 38h112q19.75 0 32.375 13.175Q438-322.649 438-303.509q0 19.141-12.612 32.325Q412.775-258 393-258H281Zm64-187q-15.15 0-25.075-9.66-9.925-9.659-9.925-25.2 0-16.54 8.925-25.34T345-514h271q14.175 0 24.088 8.975Q650-496.049 650-479.509q0 15.541-8.912 25.025Q632.175-445 616-445H345Zm224 187q-21.75 0-34.375-13.36Q522-284.719 522-303.86 522-323 534.625-336T569-349h110q56.333 0 93.667-37.765 37.333-37.764 37.333-93Q810-535 772.667-573 735.333-611 679-611H569q-21.75 0-34.375-13.36Q522-637.719 522-656.86q0-19.14 12.625-32.64T569-703h110q93.715 0 158.357 64.62Q902-573.76 902-480.078q0 93.683-64.643 157.88Q772.715-258 679-258H569Z"/></svg>